<svg xmlns="http://www.w3.org/2000/svg" width="455" height="298" viewBox="0 0 455 298">
  <g id="Grupo_148" data-name="Grupo 148" transform="translate(-1118 -394)">
    <g id="Grupo_64" data-name="Grupo 64" transform="translate(783 305.313)">
      <g id="Camada_x0020_1" transform="translate(335 89)">
        <rect id="Retângulo_3" data-name="Retângulo 3" width="455" height="228" transform="translate(0 -0.313)" fill="none"/>
        <g id="_2265820679392" transform="translate(24.696 23.152)">
          <g id="Grupo_5" data-name="Grupo 5">
            <g id="Grupo_3" data-name="Grupo 3" transform="translate(0 51.778)">
              <path id="Caminho_1" data-name="Caminho 1" d="M5957.929,4936.482c-32.556,0-64.12-2.906-95.477-10.281-8.428-1.983-20.631-6.585-27.253-7.483,2.174.6,18.687,7.886,28.781,10.917,82.613,24.807,202.093,16.833,276.073-16.22,21.976-9.817,47.427-24.856,54.591-43.919,9.974-26.547-22.895-47-41.633-53.024,41.392,26.25,31.056,54.221-6.663,77.626C6098.531,4923.768,6017.1,4936.482,5957.929,4936.482Z" transform="translate(-5791.36 -4815.168)" fill="#07396e" fill-rule="evenodd"/>
              <path id="Caminho_2" data-name="Caminho 2" d="M1524.257,4845.2c31.405-.063,62.445-3.339,91.76-10.466,21.627-5.256,59.62-18.024,72.806-31.352-4.524,1.6-20.1,9.431-31.8,13.787-68.209,25.375-179.986,24.965-245.928-1.522-19.384-7.786-58.524-26.329-54.306-55.187,1.809-12.369,9.124-18.023,13.825-24.061-14.218,7.4-34,28.753-24.208,49.9,7.2,15.557,26.389,27.636,44.561,35.411C1430.378,4838.571,1477.588,4845.086,1524.257,4845.2Z" transform="translate(-1343.782 -4736.399)" fill="#0092d3" fill-rule="evenodd"/>
            </g>
            <path id="Caminho_3" data-name="Caminho 3" d="M4705.143,1574.6q0-10.046-5.286-17.078t-12.839-7.032H4614.4q-7.551,0-12.835,7.032t-5.289,17.078v78.512H4614.4v-77.894a10.244,10.244,0,0,1,1.977-6.337,5.908,5.908,0,0,1,4.879-2.627h20.45v86.858h18.124v-86.858h20.448a5.822,5.822,0,0,1,4.765,2.627,10.259,10.259,0,0,1,1.972,6.337v77.894h18.125Zm51.936,62.13q1.277,0,1.627-1.546l22.887-84.694h19.518l-23.234,86.858a24.528,24.528,0,0,1-6.625,11.359,14.957,14.957,0,0,1-10.573,4.4h-7.2a15.087,15.087,0,0,1-10.572-4.327,23.222,23.222,0,0,1-6.505-11.437l-23.354-86.858h19.518l22.889,84.694C4755.684,1636.214,4756.228,1636.73,4757.078,1636.73Zm138.61-79.594v-6.646h-69.364q-7.551,0-12.9,7.109a27.75,27.75,0,0,0-5.343,17.155v78.357h18.241v-51.62h46.125v-15.765h-46.125v-10.355a10.374,10.374,0,0,1,2.032-6.414,5.928,5.928,0,0,1,4.824-2.7h55.651a5.912,5.912,0,0,0,4.879-2.628A10.506,10.506,0,0,0,4895.688,1557.135Z" transform="translate(-4543.419 -1550.49)" fill="#07396e" fill-rule="evenodd"/>
            <g id="Grupo_4" data-name="Grupo 4" transform="translate(377.135 12.297)">
              <text id="_" data-name="®" transform="translate(0 6)" fill="#07396e" font-size="6" font-family="Cambria"><tspan x="0" y="0">®</tspan></text>
            </g>
          </g>
        </g>
      </g>
      <text id="economia_e_eficiência_na_higienização_de_louças" data-name="economia e eficiênciana higienização de louças" transform="translate(361 344.687)" fill="#07396e" font-size="29" font-family="Roboto-Bold, Roboto" font-weight="700"><tspan x="0" y="0">ECONOMIA E EFICIÊNCIA</tspan><tspan x="0" y="35">NA HIGIENIZAÇÃO DE LOUÇAS</tspan></text>
    </g>
  </g>
</svg>
