<svg xmlns="http://www.w3.org/2000/svg" xmlns:xlink="http://www.w3.org/1999/xlink" width="321" zoomAndPan="magnify" viewBox="0 0 240.75 141.750002" height="188" preserveAspectRatio="xMidYMid meet" version="1.0"><defs><g/><clipPath id="id1"><path d="M 202 29.144531 L 221 29.144531 L 221 58 L 202 58 Z M 202 29.144531 " clip-rule="nonzero"/></clipPath><clipPath id="id2"><path d="M 216 49 L 232.507812 49 L 232.507812 62 L 216 62 Z M 216 49 " clip-rule="nonzero"/></clipPath><clipPath id="id3"><path d="M 182.84375 62 L 203 62 L 203 77 L 182.84375 77 Z M 182.84375 62 " clip-rule="nonzero"/></clipPath><clipPath id="id4"><path d="M 192 38 L 226 38 L 226 96.65625 L 192 96.65625 Z M 192 38 " clip-rule="nonzero"/></clipPath></defs><g fill="#050606" fill-opacity="1"><g transform="translate(168.352649, 104.0591)"><g/></g></g><g fill="#ffffff" fill-opacity="1"><g transform="translate(19.88506, 81.964299)"><g><path d="M 4.28125 -1.46875 L 4.28125 -39.34375 C 4.28125 -40.550781 4.898438 -41.15625 6.140625 -41.15625 C 7.222656 -41.15625 8.21875 -40.289062 9.125 -38.5625 L 18.796875 -19.875 L 28.484375 -38.5625 C 29.390625 -40.289062 30.382812 -41.15625 31.46875 -41.15625 C 32.707031 -41.15625 33.328125 -40.550781 33.328125 -39.34375 L 33.328125 -1.46875 C 33.328125 -1.007812 33.148438 -0.648438 32.796875 -0.390625 C 32.441406 -0.128906 32 0 31.46875 0 C 30.976562 0 30.546875 -0.128906 30.171875 -0.390625 C 29.796875 -0.648438 29.609375 -1.007812 29.609375 -1.46875 L 29.609375 -33.109375 L 20.265625 -15.421875 C 19.847656 -14.640625 19.34375 -14.25 18.75 -14.25 C 18.1875 -14.25 17.695312 -14.640625 17.28125 -15.421875 L 8 -33.265625 L 8 -1.46875 C 8 -1.007812 7.8125 -0.648438 7.4375 -0.390625 C 7.0625 -0.128906 6.628906 0 6.140625 0 C 5.609375 0 5.164062 -0.128906 4.8125 -0.390625 C 4.457031 -0.648438 4.28125 -1.007812 4.28125 -1.46875 Z M 4.28125 -1.46875 "/></g></g></g><g fill="#ffffff" fill-opacity="1"><g transform="translate(57.48767, 81.964299)"><g><path d="M 1.6875 -7.03125 C 1.6875 -9.925781 2.800781 -11.9375 5.03125 -13.0625 C 7.269531 -14.1875 10.53125 -14.75 14.8125 -14.75 L 17.671875 -14.75 L 17.671875 -16.09375 C 17.671875 -18.164062 17.125 -19.957031 16.03125 -21.46875 C 14.945312 -22.988281 13.28125 -23.75 11.03125 -23.75 C 9.53125 -23.75 8.171875 -23.476562 6.953125 -22.9375 C 5.734375 -22.394531 5.085938 -22.125 5.015625 -22.125 C 4.554688 -22.125 4.195312 -22.328125 3.9375 -22.734375 C 3.675781 -23.148438 3.546875 -23.601562 3.546875 -24.09375 C 3.546875 -24.8125 4.351562 -25.46875 5.96875 -26.0625 C 7.582031 -26.664062 9.304688 -26.96875 11.140625 -26.96875 C 14.671875 -26.96875 17.253906 -25.941406 18.890625 -23.890625 C 20.523438 -21.847656 21.34375 -19.25 21.34375 -16.09375 L 21.34375 -1.46875 C 21.34375 -1.050781 21.171875 -0.703125 20.828125 -0.421875 C 20.492188 -0.140625 20.0625 0 19.53125 0 C 19.039062 0 18.632812 -0.140625 18.3125 -0.421875 C 18 -0.703125 17.84375 -1.050781 17.84375 -1.46875 L 17.84375 -3.9375 C 15.332031 -1.050781 12.5 0.390625 9.34375 0.390625 C 7.09375 0.390625 5.253906 -0.234375 3.828125 -1.484375 C 2.398438 -2.742188 1.6875 -4.59375 1.6875 -7.03125 Z M 5.34375 -7.375 C 5.34375 -5.800781 5.789062 -4.628906 6.6875 -3.859375 C 7.59375 -3.085938 8.78125 -2.703125 10.25 -2.703125 C 12.007812 -2.703125 13.6875 -3.359375 15.28125 -4.671875 C 16.875 -5.984375 17.671875 -7.296875 17.671875 -8.609375 L 17.671875 -12.21875 L 15.3125 -12.21875 C 13.8125 -12.21875 12.546875 -12.160156 11.515625 -12.046875 C 10.484375 -11.929688 9.457031 -11.722656 8.4375 -11.421875 C 7.425781 -11.128906 6.65625 -10.644531 6.125 -9.96875 C 5.601562 -9.289062 5.34375 -8.425781 5.34375 -7.375 Z M 5.34375 -7.375 "/></g></g></g><g fill="#ffffff" fill-opacity="1"><g transform="translate(82.143267, 81.964299)"><g><path d="M 3.546875 -1.46875 L 3.546875 -25.28125 C 3.546875 -25.6875 3.710938 -26.007812 4.046875 -26.25 C 4.390625 -26.5 4.820312 -26.625 5.34375 -26.625 C 5.800781 -26.625 6.195312 -26.492188 6.53125 -26.234375 C 6.863281 -25.972656 7.03125 -25.65625 7.03125 -25.28125 L 7.03125 -22.6875 C 7.675781 -23.882812 8.65625 -24.894531 9.96875 -25.71875 C 11.28125 -26.550781 12.816406 -26.96875 14.578125 -26.96875 C 17.285156 -26.96875 19.632812 -25.9375 21.625 -23.875 C 23.613281 -21.8125 24.609375 -19.332031 24.609375 -16.4375 L 24.609375 -1.46875 C 24.609375 -1.007812 24.414062 -0.648438 24.03125 -0.390625 C 23.65625 -0.128906 23.226562 0 22.75 0 C 22.289062 0 21.875 -0.128906 21.5 -0.390625 C 21.125 -0.648438 20.9375 -1.007812 20.9375 -1.46875 L 20.9375 -16.4375 C 20.9375 -18.28125 20.242188 -19.929688 18.859375 -21.390625 C 17.472656 -22.859375 15.820312 -23.59375 13.90625 -23.59375 C 12.144531 -23.59375 10.585938 -22.929688 9.234375 -21.609375 C 7.878906 -20.296875 7.203125 -18.570312 7.203125 -16.4375 L 7.203125 -1.46875 C 7.203125 -1.09375 7.015625 -0.753906 6.640625 -0.453125 C 6.265625 -0.148438 5.832031 0 5.34375 0 C 4.820312 0 4.390625 -0.148438 4.046875 -0.453125 C 3.710938 -0.753906 3.546875 -1.09375 3.546875 -1.46875 Z M 3.546875 -1.46875 "/></g></g></g><g fill="#ffffff" fill-opacity="1"><g transform="translate(110.063763, 81.964299)"><g><path d="M 1.6875 -7.03125 C 1.6875 -9.925781 2.800781 -11.9375 5.03125 -13.0625 C 7.269531 -14.1875 10.53125 -14.75 14.8125 -14.75 L 17.671875 -14.75 L 17.671875 -16.09375 C 17.671875 -18.164062 17.125 -19.957031 16.03125 -21.46875 C 14.945312 -22.988281 13.28125 -23.75 11.03125 -23.75 C 9.53125 -23.75 8.171875 -23.476562 6.953125 -22.9375 C 5.734375 -22.394531 5.085938 -22.125 5.015625 -22.125 C 4.554688 -22.125 4.195312 -22.328125 3.9375 -22.734375 C 3.675781 -23.148438 3.546875 -23.601562 3.546875 -24.09375 C 3.546875 -24.8125 4.351562 -25.46875 5.96875 -26.0625 C 7.582031 -26.664062 9.304688 -26.96875 11.140625 -26.96875 C 14.671875 -26.96875 17.253906 -25.941406 18.890625 -23.890625 C 20.523438 -21.847656 21.34375 -19.25 21.34375 -16.09375 L 21.34375 -1.46875 C 21.34375 -1.050781 21.171875 -0.703125 20.828125 -0.421875 C 20.492188 -0.140625 20.0625 0 19.53125 0 C 19.039062 0 18.632812 -0.140625 18.3125 -0.421875 C 18 -0.703125 17.84375 -1.050781 17.84375 -1.46875 L 17.84375 -3.9375 C 15.332031 -1.050781 12.5 0.390625 9.34375 0.390625 C 7.09375 0.390625 5.253906 -0.234375 3.828125 -1.484375 C 2.398438 -2.742188 1.6875 -4.59375 1.6875 -7.03125 Z M 5.34375 -7.375 C 5.34375 -5.800781 5.789062 -4.628906 6.6875 -3.859375 C 7.59375 -3.085938 8.78125 -2.703125 10.25 -2.703125 C 12.007812 -2.703125 13.6875 -3.359375 15.28125 -4.671875 C 16.875 -5.984375 17.671875 -7.296875 17.671875 -8.609375 L 17.671875 -12.21875 L 15.3125 -12.21875 C 13.8125 -12.21875 12.546875 -12.160156 11.515625 -12.046875 C 10.484375 -11.929688 9.457031 -11.722656 8.4375 -11.421875 C 7.425781 -11.128906 6.65625 -10.644531 6.125 -9.96875 C 5.601562 -9.289062 5.34375 -8.425781 5.34375 -7.375 Z M 5.34375 -7.375 "/></g></g></g><g fill="#ffffff" fill-opacity="1"><g transform="translate(134.71936, 81.964299)"><g><path d="M 2.59375 -10.296875 L 2.59375 -16.328125 C 2.59375 -19.484375 3.507812 -22.046875 5.34375 -24.015625 C 7.1875 -25.984375 9.890625 -26.96875 13.453125 -26.96875 C 15.703125 -26.96875 17.585938 -26.5625 19.109375 -25.75 C 20.628906 -24.945312 21.390625 -24.132812 21.390625 -23.3125 C 21.390625 -22.894531 21.21875 -22.488281 20.875 -22.09375 C 20.539062 -21.695312 20.171875 -21.5 19.765625 -21.5 C 19.535156 -21.5 19.1875 -21.664062 18.71875 -22 C 18.25 -22.34375 17.582031 -22.691406 16.71875 -23.046875 C 15.851562 -23.410156 14.820312 -23.59375 13.625 -23.59375 C 11.21875 -23.59375 9.382812 -22.953125 8.125 -21.671875 C 6.875 -20.398438 6.25 -18.617188 6.25 -16.328125 L 6.25 -10.296875 C 6.25 -7.972656 6.875 -6.171875 8.125 -4.890625 C 9.382812 -3.617188 11.238281 -2.984375 13.6875 -2.984375 C 14.957031 -2.984375 16.03125 -3.160156 16.90625 -3.515625 C 17.789062 -3.867188 18.46875 -4.222656 18.9375 -4.578125 C 19.40625 -4.941406 19.773438 -5.125 20.046875 -5.125 C 20.535156 -5.125 20.9375 -4.9375 21.25 -4.5625 C 21.570312 -4.1875 21.734375 -3.773438 21.734375 -3.328125 C 21.734375 -2.460938 20.941406 -1.625 19.359375 -0.8125 C 17.785156 -0.0078125 15.835938 0.390625 13.515625 0.390625 C 9.910156 0.390625 7.1875 -0.582031 5.34375 -2.53125 C 3.507812 -4.476562 2.59375 -7.066406 2.59375 -10.296875 Z M 2.59375 -10.296875 "/></g></g></g><g fill="#ffffff" fill-opacity="1"><g transform="translate(157.855093, 81.964299)"><g><path d="M 1.6875 -7.03125 C 1.6875 -9.925781 2.800781 -11.9375 5.03125 -13.0625 C 7.269531 -14.1875 10.53125 -14.75 14.8125 -14.75 L 17.671875 -14.75 L 17.671875 -16.09375 C 17.671875 -18.164062 17.125 -19.957031 16.03125 -21.46875 C 14.945312 -22.988281 13.28125 -23.75 11.03125 -23.75 C 9.53125 -23.75 8.171875 -23.476562 6.953125 -22.9375 C 5.734375 -22.394531 5.085938 -22.125 5.015625 -22.125 C 4.554688 -22.125 4.195312 -22.328125 3.9375 -22.734375 C 3.675781 -23.148438 3.546875 -23.601562 3.546875 -24.09375 C 3.546875 -24.8125 4.351562 -25.46875 5.96875 -26.0625 C 7.582031 -26.664062 9.304688 -26.96875 11.140625 -26.96875 C 14.671875 -26.96875 17.253906 -25.941406 18.890625 -23.890625 C 20.523438 -21.847656 21.34375 -19.25 21.34375 -16.09375 L 21.34375 -1.46875 C 21.34375 -1.050781 21.171875 -0.703125 20.828125 -0.421875 C 20.492188 -0.140625 20.0625 0 19.53125 0 C 19.039062 0 18.632812 -0.140625 18.3125 -0.421875 C 18 -0.703125 17.84375 -1.050781 17.84375 -1.46875 L 17.84375 -3.9375 C 15.332031 -1.050781 12.5 0.390625 9.34375 0.390625 C 7.09375 0.390625 5.253906 -0.234375 3.828125 -1.484375 C 2.398438 -2.742188 1.6875 -4.59375 1.6875 -7.03125 Z M 5.34375 -7.375 C 5.34375 -5.800781 5.789062 -4.628906 6.6875 -3.859375 C 7.59375 -3.085938 8.78125 -2.703125 10.25 -2.703125 C 12.007812 -2.703125 13.6875 -3.359375 15.28125 -4.671875 C 16.875 -5.984375 17.671875 -7.296875 17.671875 -8.609375 L 17.671875 -12.21875 L 15.3125 -12.21875 C 13.8125 -12.21875 12.546875 -12.160156 11.515625 -12.046875 C 10.484375 -11.929688 9.457031 -11.722656 8.4375 -11.421875 C 7.425781 -11.128906 6.65625 -10.644531 6.125 -9.96875 C 5.601562 -9.289062 5.34375 -8.425781 5.34375 -7.375 Z M 7.484375 -34.84375 C 7.484375 -35.332031 7.691406 -35.671875 8.109375 -35.859375 L 14.40625 -39.296875 C 14.519531 -39.410156 14.671875 -39.46875 14.859375 -39.46875 C 15.273438 -39.46875 15.601562 -39.304688 15.84375 -38.984375 C 16.09375 -38.660156 16.21875 -38.296875 16.21875 -37.890625 C 16.21875 -37.285156 15.988281 -36.875 15.53125 -36.65625 L 9.515625 -33.4375 C 9.328125 -33.320312 9.140625 -33.265625 8.953125 -33.265625 C 8.578125 -33.265625 8.238281 -33.425781 7.9375 -33.75 C 7.632812 -34.070312 7.484375 -34.4375 7.484375 -34.84375 Z M 7.484375 -34.84375 "/></g></g></g><g clip-path="url(#id1)"><path fill="#ffffff" d="M 219.667969 43.707031 C 217.734375 50.308594 211.03125 56.316406 207.503906 57.167969 C 204.300781 55.035156 201.464844 45.570312 203.398438 38.964844 C 205.332031 32.363281 210.542969 28.070312 215.035156 29.378906 C 219.527344 30.6875 221.601562 37.105469 219.667969 43.707031 Z M 219.667969 43.707031 " fill-opacity="1" fill-rule="nonzero"/></g><path fill="#ffffff" d="M 212.375 74.851562 C 212.238281 61.796875 224.988281 61.277344 226.855469 64.714844 C 228.824219 68.351562 225.601562 76.960938 212.375 74.851562 Z M 212.375 74.851562 " fill-opacity="1" fill-rule="nonzero"/><g clip-path="url(#id2)"><path fill="#ffffff" d="M 216.25 60.597656 C 217.664062 47.34375 230.652344 48.324219 232.136719 52.035156 C 233.703125 55.953125 229.410156 64.300781 216.25 60.597656 Z M 216.25 60.597656 " fill-opacity="1" fill-rule="nonzero"/></g><path fill="#ffffff" d="M 203.113281 58.804688 C 187.15625 60.957031 184.582031 45.507812 188.503906 42.710938 C 192.652344 39.757812 203.675781 42.375 203.113281 58.804688 Z M 203.113281 58.804688 " fill-opacity="1" fill-rule="nonzero"/><g clip-path="url(#id3)"><path fill="#ffffff" d="M 202.3125 73.269531 C 189.9375 81.902344 181.140625 70.125 183.210938 66.113281 C 185.394531 61.875 195.710938 59.332031 202.3125 73.269531 Z M 202.3125 73.269531 " fill-opacity="1" fill-rule="nonzero"/></g><g clip-path="url(#id4)"><path fill="#ffffff" d="M 209.800781 92.355469 C 208.535156 85.398438 209.992188 74.960938 220.132812 68.421875 C 220.59375 68.125 220.542969 68.019531 220.066406 68.25 C 212.785156 71.769531 211.480469 74.886719 209.304688 76.59375 C 208.589844 66.421875 217.382812 59.296875 224.996094 56.179688 C 225.632812 55.921875 225.546875 55.785156 224.910156 55.960938 C 215.832031 58.464844 210.46875 64.320312 208.144531 67.722656 C 207.675781 49.867188 210.625 43.730469 211.78125 38.777344 C 211.84375 38.5 211.59375 38.351562 211.421875 38.585938 C 207.609375 43.679688 205.996094 59.613281 206.15625 63.089844 C 200.679688 52.015625 197.980469 49.515625 195.695312 48.164062 C 195.421875 48 195.332031 48.152344 195.550781 48.375 C 202.527344 55.570312 205.4375 66.582031 205.4375 74.28125 C 198.417969 69.277344 195.128906 67.816406 192.269531 67.21875 C 191.980469 67.15625 191.921875 67.339844 192.179688 67.476562 C 200.160156 71.8125 206.589844 76.582031 204.664062 89.878906 C 204.167969 93.679688 203.171875 96.65625 203.171875 96.65625 L 210.632812 96.65625 Z M 209.800781 92.355469 " fill-opacity="1" fill-rule="nonzero"/></g><g fill="#ffffff" fill-opacity="1"><g transform="translate(52.989626, 97.78726)"><g><path d="M 0.796875 -2.65625 L 0.796875 -6.421875 C 0.796875 -7.359375 1.046875 -8.046875 1.546875 -8.484375 C 2.046875 -8.929688 2.691406 -9.15625 3.484375 -9.15625 C 4.304688 -9.15625 4.960938 -8.945312 5.453125 -8.53125 C 5.941406 -8.113281 6.1875 -7.59375 6.1875 -6.96875 C 6.1875 -6.75 6.144531 -6.597656 6.0625 -6.515625 C 5.976562 -6.429688 5.847656 -6.390625 5.671875 -6.390625 C 5.335938 -6.390625 5.160156 -6.515625 5.140625 -6.765625 C 5.085938 -7.722656 4.546875 -8.203125 3.515625 -8.203125 C 2.410156 -8.203125 1.859375 -7.609375 1.859375 -6.421875 L 1.859375 -2.65625 C 1.859375 -1.46875 2.421875 -0.875 3.546875 -0.875 C 3.878906 -0.875 4.148438 -0.921875 4.359375 -1.015625 C 4.578125 -1.109375 4.738281 -1.238281 4.84375 -1.40625 C 4.945312 -1.582031 5.015625 -1.734375 5.046875 -1.859375 C 5.085938 -1.984375 5.117188 -2.148438 5.140625 -2.359375 C 5.171875 -2.609375 5.347656 -2.734375 5.671875 -2.734375 C 5.847656 -2.734375 5.976562 -2.691406 6.0625 -2.609375 C 6.144531 -2.523438 6.1875 -2.367188 6.1875 -2.140625 C 6.1875 -1.503906 5.9375 -0.972656 5.4375 -0.546875 C 4.945312 -0.128906 4.296875 0.078125 3.484375 0.078125 C 2.691406 0.078125 2.046875 -0.140625 1.546875 -0.578125 C 1.046875 -1.023438 0.796875 -1.71875 0.796875 -2.65625 Z M 0.796875 -2.65625 "/></g></g></g><g fill="#ffffff" fill-opacity="1"><g transform="translate(61.20771, 97.78726)"><g><path d="M 0.515625 -2.328125 L 0.515625 -3.609375 C 0.515625 -4.242188 0.757812 -4.800781 1.25 -5.28125 C 1.738281 -5.757812 2.316406 -6 2.984375 -6 C 3.648438 -6 4.226562 -5.757812 4.71875 -5.28125 C 5.207031 -4.8125 5.453125 -4.253906 5.453125 -3.609375 L 5.453125 -2.328125 C 5.453125 -1.691406 5.203125 -1.128906 4.703125 -0.640625 C 4.210938 -0.148438 3.632812 0.09375 2.96875 0.09375 C 2.3125 0.09375 1.738281 -0.144531 1.25 -0.625 C 0.757812 -1.113281 0.515625 -1.679688 0.515625 -2.328125 Z M 1.546875 -2.328125 C 1.546875 -1.929688 1.6875 -1.582031 1.96875 -1.28125 C 2.257812 -0.988281 2.597656 -0.84375 2.984375 -0.84375 C 3.367188 -0.84375 3.703125 -0.992188 3.984375 -1.296875 C 4.273438 -1.597656 4.421875 -1.941406 4.421875 -2.328125 L 4.421875 -3.609375 C 4.421875 -3.984375 4.273438 -4.316406 3.984375 -4.609375 C 3.703125 -4.910156 3.363281 -5.0625 2.96875 -5.0625 C 2.582031 -5.0625 2.25 -4.910156 1.96875 -4.609375 C 1.6875 -4.316406 1.546875 -3.984375 1.546875 -3.609375 Z M 1.546875 -2.328125 "/></g></g></g><g fill="#ffffff" fill-opacity="1"><g transform="translate(68.750441, 97.78726)"><g><path d="M 0.734375 -0.375 L 0.734375 -5.5625 C 0.734375 -5.675781 0.78125 -5.765625 0.875 -5.828125 C 0.976562 -5.898438 1.101562 -5.9375 1.25 -5.9375 C 1.375 -5.9375 1.484375 -5.898438 1.578125 -5.828125 C 1.679688 -5.753906 1.734375 -5.664062 1.734375 -5.5625 L 1.734375 -5.0625 C 1.859375 -5.320312 2.066406 -5.539062 2.359375 -5.71875 C 2.660156 -5.90625 3.007812 -6 3.40625 -6 C 4 -6 4.515625 -5.765625 4.953125 -5.296875 C 5.390625 -4.828125 5.609375 -4.265625 5.609375 -3.609375 L 5.609375 -0.375 C 5.609375 -0.257812 5.554688 -0.164062 5.453125 -0.09375 C 5.347656 -0.03125 5.222656 0 5.078125 0 C 4.941406 0 4.820312 -0.03125 4.71875 -0.09375 C 4.613281 -0.164062 4.5625 -0.257812 4.5625 -0.375 L 4.5625 -3.609375 C 4.5625 -3.984375 4.421875 -4.316406 4.140625 -4.609375 C 3.859375 -4.910156 3.523438 -5.0625 3.140625 -5.0625 C 2.785156 -5.0625 2.46875 -4.925781 2.1875 -4.65625 C 1.914062 -4.382812 1.78125 -4.035156 1.78125 -3.609375 L 1.78125 -0.375 C 1.78125 -0.28125 1.722656 -0.191406 1.609375 -0.109375 C 1.503906 -0.0351562 1.382812 0 1.25 0 C 1.101562 0 0.976562 -0.0351562 0.875 -0.109375 C 0.78125 -0.179688 0.734375 -0.269531 0.734375 -0.375 Z M 0.734375 -0.375 "/></g></g></g><g fill="#ffffff" fill-opacity="1"><g transform="translate(76.618337, 97.78726)"><g><path d="M 0.375 -0.84375 C 0.375 -0.957031 0.410156 -1.066406 0.484375 -1.171875 C 0.554688 -1.273438 0.640625 -1.328125 0.734375 -1.328125 C 0.804688 -1.328125 0.90625 -1.273438 1.03125 -1.171875 C 1.15625 -1.078125 1.332031 -0.976562 1.5625 -0.875 C 1.800781 -0.78125 2.078125 -0.734375 2.390625 -0.734375 C 2.804688 -0.734375 3.109375 -0.804688 3.296875 -0.953125 C 3.484375 -1.109375 3.578125 -1.300781 3.578125 -1.53125 C 3.578125 -1.800781 3.472656 -2.015625 3.265625 -2.171875 C 3.054688 -2.335938 2.800781 -2.460938 2.5 -2.546875 C 2.195312 -2.628906 1.894531 -2.722656 1.59375 -2.828125 C 1.300781 -2.929688 1.050781 -3.097656 0.84375 -3.328125 C 0.632812 -3.554688 0.53125 -3.863281 0.53125 -4.25 C 0.53125 -4.726562 0.695312 -5.140625 1.03125 -5.484375 C 1.375 -5.828125 1.890625 -6 2.578125 -6 C 3.015625 -6 3.414062 -5.929688 3.78125 -5.796875 C 4.15625 -5.660156 4.34375 -5.503906 4.34375 -5.328125 C 4.34375 -5.234375 4.300781 -5.125 4.21875 -5 C 4.144531 -4.875 4.050781 -4.8125 3.9375 -4.8125 C 3.894531 -4.8125 3.726562 -4.867188 3.4375 -4.984375 C 3.15625 -5.109375 2.875 -5.171875 2.59375 -5.171875 C 2.207031 -5.171875 1.921875 -5.078125 1.734375 -4.890625 C 1.546875 -4.710938 1.453125 -4.515625 1.453125 -4.296875 C 1.453125 -4.054688 1.554688 -3.867188 1.765625 -3.734375 C 1.972656 -3.609375 2.226562 -3.503906 2.53125 -3.421875 C 2.832031 -3.347656 3.132812 -3.253906 3.4375 -3.140625 C 3.738281 -3.035156 3.992188 -2.851562 4.203125 -2.59375 C 4.410156 -2.332031 4.515625 -1.992188 4.515625 -1.578125 C 4.515625 -1.054688 4.332031 -0.644531 3.96875 -0.34375 C 3.601562 -0.0507812 3.085938 0.09375 2.421875 0.09375 C 1.859375 0.09375 1.375 -0.00390625 0.96875 -0.203125 C 0.570312 -0.410156 0.375 -0.625 0.375 -0.84375 Z M 0.375 -0.84375 "/></g></g></g><g fill="#ffffff" fill-opacity="1"><g transform="translate(83.098019, 97.78726)"><g><path d="M 0.6875 -2.296875 L 0.6875 -5.5625 C 0.6875 -5.65625 0.738281 -5.738281 0.84375 -5.8125 C 0.945312 -5.894531 1.070312 -5.9375 1.21875 -5.9375 C 1.351562 -5.9375 1.472656 -5.894531 1.578125 -5.8125 C 1.679688 -5.726562 1.734375 -5.644531 1.734375 -5.5625 L 1.734375 -2.296875 C 1.734375 -1.921875 1.875 -1.582031 2.15625 -1.28125 C 2.4375 -0.988281 2.773438 -0.84375 3.171875 -0.84375 C 3.546875 -0.84375 3.875 -0.988281 4.15625 -1.28125 C 4.445312 -1.582031 4.59375 -1.921875 4.59375 -2.296875 L 4.59375 -5.5625 C 4.59375 -5.65625 4.644531 -5.738281 4.75 -5.8125 C 4.851562 -5.894531 4.976562 -5.9375 5.125 -5.9375 C 5.269531 -5.9375 5.390625 -5.898438 5.484375 -5.828125 C 5.578125 -5.753906 5.625 -5.664062 5.625 -5.5625 L 5.625 -2.296875 C 5.625 -1.660156 5.378906 -1.101562 4.890625 -0.625 C 4.410156 -0.144531 3.835938 0.09375 3.171875 0.09375 C 2.492188 0.09375 1.910156 -0.144531 1.421875 -0.625 C 0.929688 -1.101562 0.6875 -1.660156 0.6875 -2.296875 Z M 0.6875 -2.296875 "/></g></g></g><g fill="#ffffff" fill-opacity="1"><g transform="translate(90.990937, 97.78726)"><g><path d="M 0.84375 -0.375 L 0.84375 -9.15625 C 0.84375 -9.257812 0.890625 -9.34375 0.984375 -9.40625 C 1.085938 -9.476562 1.210938 -9.515625 1.359375 -9.515625 C 1.515625 -9.515625 1.640625 -9.476562 1.734375 -9.40625 C 1.835938 -9.34375 1.890625 -9.257812 1.890625 -9.15625 L 1.890625 -0.375 C 1.890625 -0.28125 1.835938 -0.191406 1.734375 -0.109375 C 1.628906 -0.0351562 1.503906 0 1.359375 0 C 1.222656 0 1.101562 -0.0351562 1 -0.109375 C 0.894531 -0.179688 0.84375 -0.269531 0.84375 -0.375 Z M 0.84375 -0.375 "/></g></g></g><g fill="#ffffff" fill-opacity="1"><g transform="translate(95.306999, 97.78726)"><g><path d="M 0.71875 -1.890625 L 0.71875 -8.328125 C 0.71875 -8.429688 0.769531 -8.519531 0.875 -8.59375 C 0.976562 -8.664062 1.09375 -8.703125 1.21875 -8.703125 C 1.351562 -8.703125 1.472656 -8.664062 1.578125 -8.59375 C 1.691406 -8.519531 1.75 -8.429688 1.75 -8.328125 L 1.75 -5.9375 L 3.328125 -5.9375 C 3.421875 -5.9375 3.492188 -5.894531 3.546875 -5.8125 C 3.609375 -5.726562 3.640625 -5.628906 3.640625 -5.515625 C 3.640625 -5.410156 3.609375 -5.316406 3.546875 -5.234375 C 3.492188 -5.160156 3.421875 -5.125 3.328125 -5.125 L 1.75 -5.125 L 1.75 -1.890625 C 1.75 -1.535156 1.828125 -1.28125 1.984375 -1.125 C 2.140625 -0.976562 2.410156 -0.90625 2.796875 -0.90625 L 3.171875 -0.90625 C 3.316406 -0.90625 3.425781 -0.863281 3.5 -0.78125 C 3.582031 -0.695312 3.625 -0.59375 3.625 -0.46875 C 3.625 -0.34375 3.582031 -0.234375 3.5 -0.140625 C 3.414062 -0.046875 3.304688 0 3.171875 0 L 2.796875 0 C 1.410156 0 0.71875 -0.628906 0.71875 -1.890625 Z M 0.71875 -1.890625 "/></g></g></g><g fill="#ffffff" fill-opacity="1"><g transform="translate(100.761152, 97.78726)"><g><path d="M 0.515625 -2.328125 L 0.515625 -3.609375 C 0.515625 -4.242188 0.757812 -4.800781 1.25 -5.28125 C 1.738281 -5.757812 2.316406 -6 2.984375 -6 C 3.648438 -6 4.226562 -5.757812 4.71875 -5.28125 C 5.207031 -4.8125 5.453125 -4.253906 5.453125 -3.609375 L 5.453125 -2.328125 C 5.453125 -1.691406 5.203125 -1.128906 4.703125 -0.640625 C 4.210938 -0.148438 3.632812 0.09375 2.96875 0.09375 C 2.3125 0.09375 1.738281 -0.144531 1.25 -0.625 C 0.757812 -1.113281 0.515625 -1.679688 0.515625 -2.328125 Z M 1.546875 -2.328125 C 1.546875 -1.929688 1.6875 -1.582031 1.96875 -1.28125 C 2.257812 -0.988281 2.597656 -0.84375 2.984375 -0.84375 C 3.367188 -0.84375 3.703125 -0.992188 3.984375 -1.296875 C 4.273438 -1.597656 4.421875 -1.941406 4.421875 -2.328125 L 4.421875 -3.609375 C 4.421875 -3.984375 4.273438 -4.316406 3.984375 -4.609375 C 3.703125 -4.910156 3.363281 -5.0625 2.96875 -5.0625 C 2.582031 -5.0625 2.25 -4.910156 1.96875 -4.609375 C 1.6875 -4.316406 1.546875 -3.984375 1.546875 -3.609375 Z M 1.546875 -2.328125 "/></g></g></g><g fill="#ffffff" fill-opacity="1"><g transform="translate(108.303881, 97.78726)"><g><path d="M 0.734375 -0.375 L 0.734375 -5.5625 C 0.734375 -5.675781 0.78125 -5.765625 0.875 -5.828125 C 0.976562 -5.898438 1.101562 -5.9375 1.25 -5.9375 C 1.382812 -5.9375 1.5 -5.898438 1.59375 -5.828125 C 1.6875 -5.765625 1.734375 -5.675781 1.734375 -5.5625 L 1.734375 -4.984375 C 1.878906 -5.265625 2.097656 -5.503906 2.390625 -5.703125 C 2.679688 -5.898438 3.003906 -6 3.359375 -6 L 3.796875 -6 C 3.898438 -6 3.988281 -5.953125 4.0625 -5.859375 C 4.144531 -5.765625 4.1875 -5.65625 4.1875 -5.53125 C 4.1875 -5.40625 4.144531 -5.296875 4.0625 -5.203125 C 3.988281 -5.109375 3.898438 -5.0625 3.796875 -5.0625 L 3.359375 -5.0625 C 2.941406 -5.0625 2.570312 -4.890625 2.25 -4.546875 C 1.9375 -4.210938 1.78125 -3.773438 1.78125 -3.234375 L 1.78125 -0.375 C 1.78125 -0.28125 1.726562 -0.191406 1.625 -0.109375 C 1.519531 -0.0351562 1.394531 0 1.25 0 C 1.101562 0 0.976562 -0.0351562 0.875 -0.109375 C 0.78125 -0.179688 0.734375 -0.269531 0.734375 -0.375 Z M 0.734375 -0.375 "/></g></g></g><g fill="#ffffff" fill-opacity="1"><g transform="translate(114.183252, 97.78726)"><g><path d="M 0.78125 -7.734375 C 0.65625 -7.859375 0.59375 -8 0.59375 -8.15625 C 0.59375 -8.3125 0.65625 -8.445312 0.78125 -8.5625 C 0.90625 -8.6875 1.0625 -8.75 1.25 -8.75 C 1.425781 -8.75 1.578125 -8.6875 1.703125 -8.5625 C 1.828125 -8.445312 1.890625 -8.3125 1.890625 -8.15625 C 1.890625 -8 1.828125 -7.859375 1.703125 -7.734375 C 1.578125 -7.617188 1.425781 -7.5625 1.25 -7.5625 C 1.070312 -7.5625 0.914062 -7.617188 0.78125 -7.734375 Z M 0.734375 -0.375 L 0.734375 -5.5625 C 0.734375 -5.675781 0.78125 -5.765625 0.875 -5.828125 C 0.976562 -5.898438 1.101562 -5.9375 1.25 -5.9375 C 1.40625 -5.9375 1.53125 -5.898438 1.625 -5.828125 C 1.726562 -5.765625 1.78125 -5.675781 1.78125 -5.5625 L 1.78125 -0.375 C 1.78125 -0.28125 1.726562 -0.191406 1.625 -0.109375 C 1.519531 -0.0351562 1.394531 0 1.25 0 C 1.101562 0 0.976562 -0.0351562 0.875 -0.109375 C 0.78125 -0.179688 0.734375 -0.269531 0.734375 -0.375 Z M 0.734375 -0.375 "/></g></g></g><g fill="#ffffff" fill-opacity="1"><g transform="translate(118.2742, 97.78726)"><g><path d="M 0.34375 -1.5625 C 0.34375 -2.21875 0.59375 -2.671875 1.09375 -2.921875 C 1.601562 -3.171875 2.332031 -3.296875 3.28125 -3.296875 L 3.875 -3.296875 L 3.875 -3.5625 C 3.875 -3.976562 3.757812 -4.34375 3.53125 -4.65625 C 3.300781 -4.96875 2.957031 -5.125 2.5 -5.125 C 2.15625 -5.125 1.847656 -5.0625 1.578125 -4.9375 C 1.304688 -4.8125 1.160156 -4.75 1.140625 -4.75 C 1.023438 -4.75 0.929688 -4.804688 0.859375 -4.921875 C 0.785156 -5.035156 0.75 -5.15625 0.75 -5.28125 C 0.75 -5.46875 0.9375 -5.632812 1.3125 -5.78125 C 1.695312 -5.925781 2.101562 -6 2.53125 -6 C 3.34375 -6 3.941406 -5.769531 4.328125 -5.3125 C 4.722656 -4.851562 4.921875 -4.273438 4.921875 -3.578125 L 4.921875 -0.375 C 4.921875 -0.269531 4.867188 -0.179688 4.765625 -0.109375 C 4.671875 -0.0351562 4.550781 0 4.40625 0 C 4.269531 0 4.15625 -0.0351562 4.0625 -0.109375 C 3.976562 -0.179688 3.9375 -0.269531 3.9375 -0.375 L 3.9375 -0.875 C 3.363281 -0.226562 2.734375 0.09375 2.046875 0.09375 C 1.546875 0.09375 1.132812 -0.046875 0.8125 -0.328125 C 0.5 -0.609375 0.34375 -1.019531 0.34375 -1.5625 Z M 1.40625 -1.671875 C 1.40625 -1.367188 1.488281 -1.132812 1.65625 -0.96875 C 1.832031 -0.8125 2.066406 -0.734375 2.359375 -0.734375 C 2.710938 -0.734375 3.050781 -0.875 3.375 -1.15625 C 3.707031 -1.4375 3.875 -1.722656 3.875 -2.015625 L 3.875 -2.671875 L 3.4375 -2.671875 C 3.195312 -2.671875 2.988281 -2.660156 2.8125 -2.640625 C 2.632812 -2.628906 2.453125 -2.601562 2.265625 -2.5625 C 2.078125 -2.53125 1.921875 -2.476562 1.796875 -2.40625 C 1.679688 -2.332031 1.585938 -2.234375 1.515625 -2.109375 C 1.441406 -1.992188 1.40625 -1.847656 1.40625 -1.671875 Z M 1.40625 -1.671875 "/></g></g></g><g fill="#ffffff" fill-opacity="1"><g transform="translate(125.454245, 97.78726)"><g/></g></g><g fill="#ffffff" fill-opacity="1"><g transform="translate(129.532682, 97.78726)"><g><path d="M 0.21875 -0.4375 C 0.21875 -0.457031 0.222656 -0.488281 0.234375 -0.53125 L 2.796875 -8.859375 C 2.867188 -9.097656 3.082031 -9.21875 3.4375 -9.21875 C 3.800781 -9.21875 4.019531 -9.097656 4.09375 -8.859375 L 6.640625 -0.53125 C 6.640625 -0.519531 6.640625 -0.503906 6.640625 -0.484375 C 6.648438 -0.472656 6.65625 -0.460938 6.65625 -0.453125 C 6.65625 -0.335938 6.585938 -0.234375 6.453125 -0.140625 C 6.316406 -0.046875 6.164062 0 6 0 C 5.800781 0 5.675781 -0.078125 5.625 -0.234375 L 5.078125 -2.109375 L 1.796875 -2.109375 L 1.234375 -0.234375 C 1.179688 -0.078125 1.050781 0 0.84375 0 C 0.695312 0 0.554688 -0.0390625 0.421875 -0.125 C 0.285156 -0.207031 0.21875 -0.3125 0.21875 -0.4375 Z M 2.03125 -2.96875 L 4.828125 -2.96875 L 3.4375 -7.671875 Z M 2.03125 -2.96875 "/></g></g></g><g fill="#ffffff" fill-opacity="1"><g transform="translate(137.988391, 97.78726)"><g><path d="M 0.734375 -0.375 L 0.734375 -5.5625 C 0.734375 -5.675781 0.78125 -5.765625 0.875 -5.828125 C 0.976562 -5.898438 1.101562 -5.9375 1.25 -5.9375 C 1.382812 -5.9375 1.5 -5.898438 1.59375 -5.828125 C 1.6875 -5.765625 1.734375 -5.675781 1.734375 -5.5625 L 1.734375 -5.0625 C 1.878906 -5.332031 2.09375 -5.554688 2.375 -5.734375 C 2.664062 -5.910156 3.003906 -6 3.390625 -6 C 3.773438 -6 4.117188 -5.882812 4.421875 -5.65625 C 4.722656 -5.425781 4.953125 -5.125 5.109375 -4.75 C 5.316406 -5.164062 5.59375 -5.476562 5.9375 -5.6875 C 6.28125 -5.894531 6.640625 -6 7.015625 -6 C 7.597656 -6 8.097656 -5.78125 8.515625 -5.34375 C 8.941406 -4.914062 9.15625 -4.335938 9.15625 -3.609375 L 9.15625 -0.375 C 9.15625 -0.28125 9.101562 -0.191406 9 -0.109375 C 8.894531 -0.0351562 8.769531 0 8.625 0 C 8.488281 0 8.367188 -0.0351562 8.265625 -0.109375 C 8.160156 -0.191406 8.109375 -0.28125 8.109375 -0.375 L 8.109375 -3.609375 C 8.109375 -4.054688 7.976562 -4.410156 7.71875 -4.671875 C 7.457031 -4.929688 7.148438 -5.0625 6.796875 -5.0625 C 6.441406 -5.0625 6.128906 -4.925781 5.859375 -4.65625 C 5.585938 -4.394531 5.453125 -4.054688 5.453125 -3.640625 L 5.453125 -0.359375 C 5.453125 -0.242188 5.398438 -0.15625 5.296875 -0.09375 C 5.191406 -0.03125 5.070312 0 4.9375 0 C 4.800781 0 4.679688 -0.03125 4.578125 -0.09375 C 4.472656 -0.15625 4.421875 -0.242188 4.421875 -0.359375 L 4.421875 -3.625 C 4.421875 -4.039062 4.289062 -4.382812 4.03125 -4.65625 C 3.78125 -4.925781 3.472656 -5.0625 3.109375 -5.0625 C 2.753906 -5.0625 2.441406 -4.925781 2.171875 -4.65625 C 1.910156 -4.394531 1.78125 -4.046875 1.78125 -3.609375 L 1.78125 -0.375 C 1.78125 -0.28125 1.726562 -0.191406 1.625 -0.109375 C 1.519531 -0.0351562 1.394531 0 1.25 0 C 1.101562 0 0.976562 -0.0351562 0.875 -0.109375 C 0.78125 -0.179688 0.734375 -0.269531 0.734375 -0.375 Z M 0.734375 -0.375 "/></g></g></g><g fill="#ffffff" fill-opacity="1"><g transform="translate(149.395618, 97.78726)"><g><path d="M 0.75 -0.375 L 0.75 -9.15625 C 0.75 -9.257812 0.796875 -9.34375 0.890625 -9.40625 C 0.984375 -9.476562 1.101562 -9.515625 1.25 -9.515625 C 1.40625 -9.515625 1.535156 -9.476562 1.640625 -9.40625 C 1.742188 -9.34375 1.796875 -9.257812 1.796875 -9.15625 L 1.796875 -5.0625 C 1.941406 -5.320312 2.15625 -5.539062 2.4375 -5.71875 C 2.71875 -5.90625 3.046875 -6 3.421875 -6 C 4.035156 -6 4.5625 -5.765625 5 -5.296875 C 5.445312 -4.828125 5.671875 -4.265625 5.671875 -3.609375 L 5.671875 -2.328125 C 5.671875 -1.691406 5.445312 -1.128906 5 -0.640625 C 4.5625 -0.148438 4.050781 0.09375 3.46875 0.09375 C 3.09375 0.09375 2.742188 0 2.421875 -0.1875 C 2.109375 -0.375 1.878906 -0.601562 1.734375 -0.875 L 1.734375 -0.375 C 1.734375 -0.269531 1.6875 -0.179688 1.59375 -0.109375 C 1.5 -0.0351562 1.390625 0 1.265625 0 C 1.117188 0 0.992188 -0.0351562 0.890625 -0.109375 C 0.796875 -0.179688 0.75 -0.269531 0.75 -0.375 Z M 1.796875 -1.984375 C 1.796875 -1.773438 1.941406 -1.53125 2.234375 -1.25 C 2.523438 -0.976562 2.851562 -0.84375 3.21875 -0.84375 C 3.59375 -0.84375 3.921875 -0.992188 4.203125 -1.296875 C 4.484375 -1.597656 4.625 -1.941406 4.625 -2.328125 L 4.625 -3.609375 C 4.625 -3.984375 4.484375 -4.316406 4.203125 -4.609375 C 3.921875 -4.910156 3.585938 -5.0625 3.203125 -5.0625 C 2.828125 -5.0625 2.5 -4.925781 2.21875 -4.65625 C 1.9375 -4.382812 1.796875 -4.035156 1.796875 -3.609375 Z M 1.796875 -1.984375 "/></g></g></g><g fill="#ffffff" fill-opacity="1"><g transform="translate(157.150959, 97.78726)"><g><path d="M 0.78125 -7.734375 C 0.65625 -7.859375 0.59375 -8 0.59375 -8.15625 C 0.59375 -8.3125 0.65625 -8.445312 0.78125 -8.5625 C 0.90625 -8.6875 1.0625 -8.75 1.25 -8.75 C 1.425781 -8.75 1.578125 -8.6875 1.703125 -8.5625 C 1.828125 -8.445312 1.890625 -8.3125 1.890625 -8.15625 C 1.890625 -8 1.828125 -7.859375 1.703125 -7.734375 C 1.578125 -7.617188 1.425781 -7.5625 1.25 -7.5625 C 1.070312 -7.5625 0.914062 -7.617188 0.78125 -7.734375 Z M 0.734375 -0.375 L 0.734375 -5.5625 C 0.734375 -5.675781 0.78125 -5.765625 0.875 -5.828125 C 0.976562 -5.898438 1.101562 -5.9375 1.25 -5.9375 C 1.40625 -5.9375 1.53125 -5.898438 1.625 -5.828125 C 1.726562 -5.765625 1.78125 -5.675781 1.78125 -5.5625 L 1.78125 -0.375 C 1.78125 -0.28125 1.726562 -0.191406 1.625 -0.109375 C 1.519531 -0.0351562 1.394531 0 1.25 0 C 1.101562 0 0.976562 -0.0351562 0.875 -0.109375 C 0.78125 -0.179688 0.734375 -0.269531 0.734375 -0.375 Z M 0.734375 -0.375 "/></g></g></g><g fill="#ffffff" fill-opacity="1"><g transform="translate(161.241901, 97.78726)"><g><path d="M 0.515625 -2.328125 L 0.515625 -3.640625 C 0.515625 -4.285156 0.757812 -4.835938 1.25 -5.296875 C 1.738281 -5.765625 2.320312 -6 3 -6 C 3.65625 -6 4.21875 -5.78125 4.6875 -5.34375 C 5.164062 -4.90625 5.40625 -4.359375 5.40625 -3.703125 C 5.40625 -3.460938 5.375 -3.269531 5.3125 -3.125 C 5.257812 -2.976562 5.171875 -2.875 5.046875 -2.8125 C 4.929688 -2.75 4.820312 -2.707031 4.71875 -2.6875 C 4.613281 -2.675781 4.472656 -2.671875 4.296875 -2.671875 L 1.546875 -2.671875 L 1.546875 -2.296875 C 1.546875 -1.835938 1.710938 -1.46875 2.046875 -1.1875 C 2.378906 -0.914062 2.804688 -0.78125 3.328125 -0.78125 C 3.597656 -0.78125 3.835938 -0.820312 4.046875 -0.90625 C 4.253906 -0.988281 4.421875 -1.066406 4.546875 -1.140625 C 4.671875 -1.222656 4.769531 -1.265625 4.84375 -1.265625 C 4.957031 -1.265625 5.054688 -1.210938 5.140625 -1.109375 C 5.222656 -1.003906 5.265625 -0.894531 5.265625 -0.78125 C 5.265625 -0.59375 5.070312 -0.398438 4.6875 -0.203125 C 4.3125 -0.00390625 3.847656 0.09375 3.296875 0.09375 C 2.472656 0.09375 1.800781 -0.125 1.28125 -0.5625 C 0.769531 -1.007812 0.515625 -1.597656 0.515625 -2.328125 Z M 1.546875 -3.359375 L 3.875 -3.359375 C 4.082031 -3.359375 4.222656 -3.382812 4.296875 -3.4375 C 4.378906 -3.5 4.421875 -3.609375 4.421875 -3.765625 C 4.421875 -4.140625 4.28125 -4.46875 4 -4.75 C 3.726562 -5.039062 3.390625 -5.1875 2.984375 -5.1875 C 2.597656 -5.1875 2.257812 -5.050781 1.96875 -4.78125 C 1.6875 -4.519531 1.546875 -4.195312 1.546875 -3.8125 Z M 1.546875 -3.359375 "/></g></g></g><g fill="#ffffff" fill-opacity="1"><g transform="translate(168.634555, 97.78726)"><g><path d="M 0.734375 -0.375 L 0.734375 -5.5625 C 0.734375 -5.675781 0.78125 -5.765625 0.875 -5.828125 C 0.976562 -5.898438 1.101562 -5.9375 1.25 -5.9375 C 1.375 -5.9375 1.484375 -5.898438 1.578125 -5.828125 C 1.679688 -5.753906 1.734375 -5.664062 1.734375 -5.5625 L 1.734375 -5.0625 C 1.859375 -5.320312 2.066406 -5.539062 2.359375 -5.71875 C 2.660156 -5.90625 3.007812 -6 3.40625 -6 C 4 -6 4.515625 -5.765625 4.953125 -5.296875 C 5.390625 -4.828125 5.609375 -4.265625 5.609375 -3.609375 L 5.609375 -0.375 C 5.609375 -0.257812 5.554688 -0.164062 5.453125 -0.09375 C 5.347656 -0.03125 5.222656 0 5.078125 0 C 4.941406 0 4.820312 -0.03125 4.71875 -0.09375 C 4.613281 -0.164062 4.5625 -0.257812 4.5625 -0.375 L 4.5625 -3.609375 C 4.5625 -3.984375 4.421875 -4.316406 4.140625 -4.609375 C 3.859375 -4.910156 3.523438 -5.0625 3.140625 -5.0625 C 2.785156 -5.0625 2.46875 -4.925781 2.1875 -4.65625 C 1.914062 -4.382812 1.78125 -4.035156 1.78125 -3.609375 L 1.78125 -0.375 C 1.78125 -0.28125 1.722656 -0.191406 1.609375 -0.109375 C 1.503906 -0.0351562 1.382812 0 1.25 0 C 1.101562 0 0.976562 -0.0351562 0.875 -0.109375 C 0.78125 -0.179688 0.734375 -0.269531 0.734375 -0.375 Z M 0.734375 -0.375 "/></g></g></g><g fill="#ffffff" fill-opacity="1"><g transform="translate(176.502446, 97.78726)"><g><path d="M 0.71875 -1.890625 L 0.71875 -8.328125 C 0.71875 -8.429688 0.769531 -8.519531 0.875 -8.59375 C 0.976562 -8.664062 1.09375 -8.703125 1.21875 -8.703125 C 1.351562 -8.703125 1.472656 -8.664062 1.578125 -8.59375 C 1.691406 -8.519531 1.75 -8.429688 1.75 -8.328125 L 1.75 -5.9375 L 3.328125 -5.9375 C 3.421875 -5.9375 3.492188 -5.894531 3.546875 -5.8125 C 3.609375 -5.726562 3.640625 -5.628906 3.640625 -5.515625 C 3.640625 -5.410156 3.609375 -5.316406 3.546875 -5.234375 C 3.492188 -5.160156 3.421875 -5.125 3.328125 -5.125 L 1.75 -5.125 L 1.75 -1.890625 C 1.75 -1.535156 1.828125 -1.28125 1.984375 -1.125 C 2.140625 -0.976562 2.410156 -0.90625 2.796875 -0.90625 L 3.171875 -0.90625 C 3.316406 -0.90625 3.425781 -0.863281 3.5 -0.78125 C 3.582031 -0.695312 3.625 -0.59375 3.625 -0.46875 C 3.625 -0.34375 3.582031 -0.234375 3.5 -0.140625 C 3.414062 -0.046875 3.304688 0 3.171875 0 L 2.796875 0 C 1.410156 0 0.71875 -0.628906 0.71875 -1.890625 Z M 0.71875 -1.890625 "/></g></g></g><g fill="#ffffff" fill-opacity="1"><g transform="translate(181.956594, 97.78726)"><g><path d="M 0.34375 -1.5625 C 0.34375 -2.21875 0.59375 -2.671875 1.09375 -2.921875 C 1.601562 -3.171875 2.332031 -3.296875 3.28125 -3.296875 L 3.875 -3.296875 L 3.875 -3.5625 C 3.875 -3.976562 3.757812 -4.34375 3.53125 -4.65625 C 3.300781 -4.96875 2.957031 -5.125 2.5 -5.125 C 2.15625 -5.125 1.847656 -5.0625 1.578125 -4.9375 C 1.304688 -4.8125 1.160156 -4.75 1.140625 -4.75 C 1.023438 -4.75 0.929688 -4.804688 0.859375 -4.921875 C 0.785156 -5.035156 0.75 -5.15625 0.75 -5.28125 C 0.75 -5.46875 0.9375 -5.632812 1.3125 -5.78125 C 1.695312 -5.925781 2.101562 -6 2.53125 -6 C 3.34375 -6 3.941406 -5.769531 4.328125 -5.3125 C 4.722656 -4.851562 4.921875 -4.273438 4.921875 -3.578125 L 4.921875 -0.375 C 4.921875 -0.269531 4.867188 -0.179688 4.765625 -0.109375 C 4.671875 -0.0351562 4.550781 0 4.40625 0 C 4.269531 0 4.15625 -0.0351562 4.0625 -0.109375 C 3.976562 -0.179688 3.9375 -0.269531 3.9375 -0.375 L 3.9375 -0.875 C 3.363281 -0.226562 2.734375 0.09375 2.046875 0.09375 C 1.546875 0.09375 1.132812 -0.046875 0.8125 -0.328125 C 0.5 -0.609375 0.34375 -1.019531 0.34375 -1.5625 Z M 1.40625 -1.671875 C 1.40625 -1.367188 1.488281 -1.132812 1.65625 -0.96875 C 1.832031 -0.8125 2.066406 -0.734375 2.359375 -0.734375 C 2.710938 -0.734375 3.050781 -0.875 3.375 -1.15625 C 3.707031 -1.4375 3.875 -1.722656 3.875 -2.015625 L 3.875 -2.671875 L 3.4375 -2.671875 C 3.195312 -2.671875 2.988281 -2.660156 2.8125 -2.640625 C 2.632812 -2.628906 2.453125 -2.601562 2.265625 -2.5625 C 2.078125 -2.53125 1.921875 -2.476562 1.796875 -2.40625 C 1.679688 -2.332031 1.585938 -2.234375 1.515625 -2.109375 C 1.441406 -1.992188 1.40625 -1.847656 1.40625 -1.671875 Z M 1.40625 -1.671875 "/></g></g></g><g fill="#ffffff" fill-opacity="1"><g transform="translate(189.136633, 97.78726)"><g><path d="M 0.84375 -0.375 L 0.84375 -9.15625 C 0.84375 -9.257812 0.890625 -9.34375 0.984375 -9.40625 C 1.085938 -9.476562 1.210938 -9.515625 1.359375 -9.515625 C 1.515625 -9.515625 1.640625 -9.476562 1.734375 -9.40625 C 1.835938 -9.34375 1.890625 -9.257812 1.890625 -9.15625 L 1.890625 -0.375 C 1.890625 -0.28125 1.835938 -0.191406 1.734375 -0.109375 C 1.628906 -0.0351562 1.503906 0 1.359375 0 C 1.222656 0 1.101562 -0.0351562 1 -0.109375 C 0.894531 -0.179688 0.84375 -0.269531 0.84375 -0.375 Z M 0.84375 -0.375 "/></g></g></g></svg>